<?xml version="1.0" encoding="utf-8"?>
<!-- Generator: Adobe Illustrator 25.0.0, SVG Export Plug-In . SVG Version: 6.00 Build 0)  -->
<svg version="1.1" id="Layer_1" xmlns="http://www.w3.org/2000/svg" xmlns:xlink="http://www.w3.org/1999/xlink" x="0px" y="0px"
	 viewBox="0 0 264 264" style="enable-background:new 0 0 264 264;" xml:space="preserve">
<style type="text/css">
	.st0{fill:#FFFFFF;}
</style>
<path d="M240,264H24c-13.2,0-24-10.8-24-24V24C0,10.8,10.8,0,24,0h216c13.2,0,24,10.8,24,24v216C264,253.2,253.2,264,240,264z"/>
<path id="logo" class="st0" d="M75.1,46.2c12.2,0,24.5,0,36.8,0c6.6,0.1,13.3-0.3,19.9,0.7c18,2.2,35.2,10.4,48.3,22.9
	c12.9,12.2,21.8,28.4,25.2,45.8c4.4,22.5-0.6,46.8-13.8,65.6c-12.9,18.6-33.4,31.7-55.8,35.5c-8.7,1.7-17.6,1.2-26.4,1.3
	c-11.4,0-22.8,0-34.2,0c0-43,0-86,0-129c15.8,0,31.6,0,47.3,0c9.3,0.1,18.4,3.3,25.8,9c8,6.1,13.7,15.1,15.9,25
	c2.2,10.1,0.7,21-4.3,30.1c-7.1,13.2-21.5,22.1-36.6,22.4c-8.8,0.1-17.6,0-26.4,0c0,6.9-0.1,13.9,0,20.8c8.1,0.1,16.3,0,24.4,0
	c12,0,24.1-3.5,34.2-10c11.1-7.1,20-17.6,25-29.9c5.4-13,6.2-27.9,2.4-41.4c-4.1-14.8-13.7-27.9-26.6-36.3
	c-10.3-6.8-22.6-10.4-35-10.4c-15.3,0-30.7,0-46.1,0C75.1,60.7,75.1,53.5,75.1,46.2 M96.7,110.5c0,14.3,0,28.7,0,43
	c8.3,0,16.7,0,25,0c3.1,0,6.2-0.7,9-2c8.5-3.8,13.8-13.5,12.2-22.8c-1.3-9.8-10.2-17.8-20-18.2C114.3,110.4,105.5,110.5,96.7,110.5z
	"/>
</svg>
