<?xml version="1.0" encoding="utf-8"?>
<!-- Generator: Adobe Illustrator 25.0.0, SVG Export Plug-In . SVG Version: 6.00 Build 0)  -->
<svg version="1.1" id="Capa_1" xmlns="http://www.w3.org/2000/svg" xmlns:xlink="http://www.w3.org/1999/xlink" x="0px" y="0px"
	 viewBox="0 0 93.1 93.1" style="enable-background:new 0 0 93.1 93.1;" xml:space="preserve">
<path d="M11.2,0.1C5,0.1,0,5.1,0,11.3c0,6.2,5,11.2,11.2,11.2c6.2,0,11.2-5,11.2-11.2C22.4,5.1,17.4,0.1,11.2,0.1z M1.5,30.9h19.3
	V93H1.5V30.9z M69.9,29.4c-9.4,0-15.7,5.1-18.2,10h-0.3v-8.5H32.9h0V93h19.3V62.3c0-8.1,1.5-15.9,11.6-15.9c9.9,0,10,9.3,10,16.5V93
	h19.3v-34C93.1,42.2,89.5,29.4,69.9,29.4z"/>
</svg>
