<svg width="16" height="16" viewBox="0 0 16 16" fill="none" xmlns="http://www.w3.org/2000/svg">
<g clip-path="url(#clip0_203_2)">
<path d="M1.92481 0.0170898C0.859291 0.0170898 0 0.876381 0 1.9419C0 3.00742 0.859291 3.86671 1.92481 3.86671C2.99033 3.86671 3.84962 3.00742 3.84962 1.9419C3.84962 0.876381 2.99033 0.0170898 1.92481 0.0170898ZM0.257787 5.31032H3.57465V15.9827H0.257787V5.31032ZM12.0129 5.05253C10.3974 5.05253 9.31472 5.92901 8.88507 6.77112H8.83351V5.31032H5.65414V15.9827H8.971V10.7067C8.971 9.31462 9.22879 7.97412 10.9646 7.97412C12.666 7.97412 12.6831 9.57241 12.6831 10.8098V15.9827H16V10.1395C16 7.25232 15.3813 5.05253 12.0129 5.05253Z" fill="white"/>
</g>
<defs>
<clipPath id="clip0_203_2">
<rect width="16" height="16" fill="white"/>
</clipPath>
</defs>
</svg>
