<svg width="76" height="31" viewBox="0 0 76 31" fill="none" xmlns="http://www.w3.org/2000/svg">
<path d="M5.176 0.716V19.628H16.024V23.5H0.856V0.716H5.176ZM34.976 15.244C34.976 17.8467 34.208 19.9373 32.672 21.516C31.136 23.0947 29.1093 23.884 26.592 23.884C24.0747 23.884 22.048 23.0947 20.512 21.516C18.9547 19.9587 18.176 17.868 18.176 15.244C18.176 12.62 18.9547 10.5293 20.512 8.972C22.048 7.39333 24.0747 6.604 26.592 6.604C29.1093 6.604 31.136 7.38267 32.672 8.94C34.208 10.4973 34.976 12.5987 34.976 15.244ZM23.424 19.18C24.192 20.0973 25.248 20.556 26.592 20.556C27.936 20.556 28.9813 20.0973 29.728 19.18C30.496 18.2413 30.88 16.9293 30.88 15.244C30.88 13.5587 30.496 12.2573 29.728 11.34C28.9813 10.4013 27.936 9.932 26.592 9.932C25.248 9.932 24.192 10.3907 23.424 11.308C22.6773 12.2253 22.304 13.5373 22.304 15.244C22.304 16.9507 22.6773 18.2627 23.424 19.18ZM50.6898 9.26V6.988H54.5938V22.956C54.5938 25.196 53.8791 26.956 52.4498 28.236C51.0418 29.516 49.0364 30.156 46.4338 30.156C44.1298 30.156 42.3164 29.644 40.9938 28.62C39.6924 27.596 38.9778 26.188 38.8498 24.396H42.8178C43.0098 26.1667 44.2364 27.052 46.4978 27.052C47.8204 27.052 48.8231 26.7107 49.5058 26.028C50.2098 25.3453 50.5618 24.3533 50.5618 23.052V20.972C49.3671 22.6147 47.6818 23.436 45.5058 23.436C43.2658 23.436 41.4631 22.6573 40.0978 21.1C38.7324 19.5853 38.0498 17.5587 38.0498 15.02C38.0498 12.46 38.7324 10.4227 40.0978 8.908C41.4418 7.372 43.2338 6.604 45.4738 6.604C47.7991 6.604 49.5378 7.48933 50.6898 9.26ZM46.4018 20.108C47.7458 20.108 48.7911 19.66 49.5378 18.764C50.2844 17.868 50.6578 16.62 50.6578 15.02C50.6578 13.42 50.2844 12.172 49.5378 11.276C48.7911 10.38 47.7458 9.932 46.4018 9.932C45.1004 9.932 44.0658 10.3907 43.2978 11.308C42.5511 12.204 42.1778 13.452 42.1778 15.052C42.1778 16.6307 42.5511 17.868 43.2978 18.764C44.0658 19.66 45.1004 20.108 46.4018 20.108ZM75.1923 15.244C75.1923 17.8467 74.4243 19.9373 72.8883 21.516C71.3523 23.0947 69.3256 23.884 66.8083 23.884C64.2909 23.884 62.2643 23.0947 60.7283 21.516C59.1709 19.9587 58.3923 17.868 58.3923 15.244C58.3923 12.62 59.1709 10.5293 60.7283 8.972C62.2643 7.39333 64.2909 6.604 66.8083 6.604C69.3256 6.604 71.3523 7.38267 72.8883 8.94C74.4243 10.4973 75.1923 12.5987 75.1923 15.244ZM63.6403 19.18C64.4083 20.0973 65.4643 20.556 66.8083 20.556C68.1523 20.556 69.1976 20.0973 69.9443 19.18C70.7123 18.2413 71.0963 16.9293 71.0963 15.244C71.0963 13.5587 70.7123 12.2573 69.9443 11.34C69.1976 10.4013 68.1523 9.932 66.8083 9.932C65.4643 9.932 64.4083 10.3907 63.6403 11.308C62.8936 12.2253 62.5203 13.5373 62.5203 15.244C62.5203 16.9507 62.8936 18.2627 63.6403 19.18Z" fill="black"/>
</svg>
