<?xml version="1.0" encoding="utf-8"?>
<!-- Generator: Adobe Illustrator 25.0.0, SVG Export Plug-In . SVG Version: 6.00 Build 0)  -->
<svg version="1.1" id="logo_1_" xmlns="http://www.w3.org/2000/svg" xmlns:xlink="http://www.w3.org/1999/xlink" x="0px" y="0px"
	 viewBox="0 0 199.3 259.7" style="enable-background:new 0 0 199.3 259.7;" xml:space="preserve">
<style type="text/css">
	.st0{fill:#FFFFFF;}
</style>
<path id="logo" class="st0" d="M0,0c18.5,0,37.1,0,55.7,0c10,0.1,20.1-0.4,30.1,1C113,4.3,139,16.7,158.9,35.6
	c19.5,18.4,33,43,38.1,69.3c6.7,34.1-0.9,70.8-20.9,99.2c-19.5,28.1-50.6,48-84.4,53.7c-13.2,2.5-26.6,1.8-40,1.9
	c-17.2,0-34.5,0-51.7,0c0-65.1,0-130.2,0-195.2c23.9,0,47.8,0,71.6,0c14,0.1,27.9,5,39,13.6c12.1,9.3,20.8,22.9,24,37.8
	c3.4,15.3,1.1,31.8-6.5,45.6c-10.8,20-32.6,33.5-55.4,33.9c-13.3,0.1-26.7,0-40,0c0,10.5-0.1,21,0,31.4c12.3,0.1,24.6,0,36.9,0
	c18.2,0,36.4-5.3,51.8-15.1c16.8-10.7,30.3-26.7,37.8-45.2c8.1-19.7,9.4-42.2,3.6-62.7c-6.2-22.4-20.8-42.2-40.2-54.9
	c-15.6-10.3-34.2-15.8-52.9-15.8c-23.2,0-46.5,0-69.7,0C0,22,0,11,0,0 M32.7,97.3c0,21.7,0,43.4,0,65c12.6,0,25.3,0,37.9,0
	c4.7,0,9.4-1,13.6-3c12.9-5.7,20.9-20.5,18.5-34.5c-2-14.8-15.4-26.9-30.2-27.5C59.3,97.2,46,97.3,32.7,97.3z"/>
</svg>
